<svg width="100" height="100" viewBox="0 0 100 100" fill="none" xmlns="http://www.w3.org/2000/svg">
<rect width="100" height="100" rx="50" fill="white"/>
<rect width="100" height="100" rx="50" fill="#4AD0FF" fill-opacity="0.15"/>
<path d="M66.0744 59.3332L64.5402 58.4913L66.0744 59.3332ZM33.9258 59.3332L32.3916 60.175L32.3916 60.175L33.9258 59.3332ZM29.0589 41.1534L27.3111 41.2416L29.0589 41.1534ZM62.2617 64.6519L63.5849 65.7972L63.5849 65.7972L62.2617 64.6519ZM37.7385 64.6519L39.0617 63.5067L39.0617 63.5067L37.7385 64.6519ZM70.9602 39.8193L72.7089 39.8863L70.9602 39.8193ZM48.2498 59.3332C48.2498 60.2997 49.0333 61.0832 49.9998 61.0832C50.9663 61.0832 51.7498 60.2997 51.7498 59.3332H48.2498ZM69.2115 39.7523C69.0269 44.57 68.0875 52.0267 64.5402 58.4913L67.6086 60.175C71.5363 53.0171 72.5157 44.9287 72.7089 39.8863L69.2115 39.7523ZM64.5402 58.4913C63.6327 60.1452 62.376 61.8458 60.9385 63.5067L63.5849 65.7972C65.122 64.0213 66.5439 62.1153 67.6086 60.175L64.5402 58.4913ZM39.0617 63.5067C37.6242 61.8458 36.3675 60.1452 35.46 58.4913L32.3916 60.175C33.4563 62.1153 34.8782 64.0213 36.4153 65.7972L39.0617 63.5067ZM35.46 58.4913C32.0102 52.2044 31.0294 45.4769 30.8067 41.0652L27.3111 41.2416C27.548 45.934 28.5902 53.2474 32.3916 60.175L35.46 58.4913ZM34.0649 37.9443H34.7856V34.4443H34.0649V37.9443ZM64.534 36.5832H65.9092V33.0832H64.534V36.5832ZM58.7007 30.7498C58.7007 33.9715 61.3124 36.5832 64.534 36.5832V33.0832C63.2454 33.0832 62.2007 32.0385 62.2007 30.7498H58.7007ZM34.7856 37.9443C38.3831 37.9443 41.2995 35.0279 41.2995 31.4304H37.7995C37.7995 33.0949 36.4501 34.4443 34.7856 34.4443V37.9443ZM44.3134 24.9165C40.7158 24.9165 37.7995 27.8329 37.7995 31.4304H41.2995C41.2995 29.7659 42.6488 28.4165 44.3134 28.4165V24.9165ZM30.8067 41.0652C30.7219 39.3867 32.1046 37.9443 34.0649 37.9443V34.4443C30.3874 34.4443 27.1116 37.2895 27.3111 41.2416L30.8067 41.0652ZM60.9385 63.5067C58.5815 66.2298 56.99 68.0535 55.3637 69.2449C53.8528 70.3518 52.3073 70.9082 50.0001 70.9082L50.0001 74.4082C53.0248 74.4082 55.3002 73.6302 57.4321 72.0683C59.4487 70.591 61.322 68.4116 63.5849 65.7972L60.9385 63.5067ZM36.4153 65.7972C38.6781 68.4116 40.5515 70.591 42.568 72.0683C44.7 73.6302 46.9754 74.4082 50.0001 74.4082L50.0001 70.9082C47.6929 70.9082 46.1474 70.3518 44.6365 69.2449C43.0102 68.0535 41.4186 66.2298 39.0617 63.5067L36.4153 65.7972ZM56.3674 28.4165C57.656 28.4165 58.7007 29.4612 58.7007 30.7498H62.2007C62.2007 27.5282 59.589 24.9165 56.3674 24.9165V28.4165ZM72.7089 39.8863C72.8596 35.9531 69.6071 33.0832 65.9092 33.0832V36.5832C67.8637 36.5832 69.2772 38.0371 69.2115 39.7523L72.7089 39.8863ZM44.3134 28.4165H56.3674V24.9165H44.3134V28.4165ZM48.2498 49.9998V59.3332H51.7498V49.9998H48.2498ZM43.5831 45.3332C43.5831 48.877 46.4559 51.7498 49.9998 51.7498V48.2498C48.3889 48.2498 47.0831 46.944 47.0831 45.3332H43.5831ZM49.9998 51.7498C53.5436 51.7498 56.4164 48.877 56.4164 45.3332H52.9164C52.9164 46.944 51.6106 48.2498 49.9998 48.2498V51.7498ZM56.4164 45.3332C56.4164 41.7893 53.5436 38.9165 49.9998 38.9165V42.4165C51.6106 42.4165 52.9164 43.7223 52.9164 45.3332H56.4164ZM49.9998 38.9165C46.4559 38.9165 43.5831 41.7893 43.5831 45.3332H47.0831C47.0831 43.7223 48.3889 42.4165 49.9998 42.4165V38.9165Z" fill="#004070"/>
</svg>
