<svg width="100" height="100" viewBox="0 0 100 100" fill="none" xmlns="http://www.w3.org/2000/svg">
<rect width="100" height="100" rx="50" fill="white"/>
<rect width="100" height="100" rx="50" fill="#4AD0FF" fill-opacity="0.15"/>
<path d="M67.5713 62.7629C66.8878 62.0795 65.7798 62.0795 65.0964 62.7629C64.413 63.4463 64.413 64.5544 65.0964 65.2378L67.5713 62.7629ZM74.4295 74.571C75.1129 75.2544 76.2209 75.2544 76.9043 74.571C77.5877 73.8876 77.5878 72.7796 76.9043 72.0962L74.4295 74.571ZM43.7823 33.2056C44.7369 33.0544 45.3882 32.158 45.237 31.2034C45.0858 30.2488 44.1893 29.5975 43.2347 29.7487L43.7823 33.2056ZM32.0821 40.9013C31.9309 41.8559 32.5822 42.7523 33.5368 42.9035C34.4914 43.0547 35.3878 42.4034 35.539 41.4488L32.0821 40.9013ZM65.0964 65.2378L74.4295 74.571L76.9043 72.0962L67.5713 62.7629L65.0964 65.2378ZM47.667 64.5835C37.0355 64.5835 28.417 55.965 28.417 45.3335H24.917C24.917 57.898 35.1025 68.0835 47.667 68.0835V64.5835ZM66.917 45.3335C66.917 55.965 58.2985 64.5835 47.667 64.5835V68.0835C60.2315 68.0835 70.417 57.898 70.417 45.3335H66.917ZM47.667 26.0835C58.2985 26.0835 66.917 34.702 66.917 45.3335H70.417C70.417 32.769 60.2315 22.5835 47.667 22.5835V26.0835ZM47.667 22.5835C35.1025 22.5835 24.917 32.769 24.917 45.3335H28.417C28.417 34.702 37.0355 26.0835 47.667 26.0835V22.5835ZM43.2347 29.7487C37.4939 30.6579 32.9914 35.1604 32.0821 40.9013L35.539 41.4488C36.2111 37.2056 39.539 33.8776 43.7823 33.2056L43.2347 29.7487Z" fill="#004070"/>
</svg>
