<svg width="100" height="100" viewBox="0 0 100 100" fill="none" xmlns="http://www.w3.org/2000/svg">
<rect width="100" height="100" rx="50" fill="white"/>
<rect width="100" height="100" rx="50" fill="#4AD0FF" fill-opacity="0.15"/>
<path d="M59.3333 43L51.2516 52.698C49.5902 54.6917 48.7595 55.6885 47.6666 55.6885C46.5737 55.6885 45.743 54.6917 44.0816 52.698L40.6666 48.6M35.0545 33.711C38.6659 34.6162 42.3442 32.4926 43.3659 28.9124C45.2706 22.2382 54.7292 22.2382 56.6339 28.9124C57.6557 32.4926 61.3339 34.6162 64.9453 33.711C71.6777 32.0234 76.407 40.2148 71.5794 45.2014C68.9897 47.8764 68.9897 52.1236 71.5794 54.7986C76.407 59.7852 71.6777 67.9766 64.9453 66.289C61.3339 65.3838 57.6557 67.5074 56.6339 71.0876C54.7292 77.7618 45.2706 77.7618 43.3659 71.0876C42.3442 67.5074 38.6659 65.3838 35.0545 66.289C28.3222 67.9766 23.5929 59.7852 28.4205 54.7986C31.0102 52.1236 31.0102 47.8764 28.4205 45.2014C23.5929 40.2148 28.3222 32.0234 35.0545 33.711Z" stroke="#004070" stroke-width="3.5" stroke-linecap="round"/>
</svg>
