<svg width="100" height="100" viewBox="0 0 100 100" fill="none" xmlns="http://www.w3.org/2000/svg">
<rect width="100" height="100" rx="50" fill="white"/>
<rect width="100" height="100" rx="50" fill="#4AD0FF" fill-opacity="0.15"/>
<path d="M40.5435 40.477C45.8632 43.6021 48.5231 45.1647 49.4157 47.2047C50.1943 48.984 50.1943 51.016 49.4157 52.7953C48.5231 54.8353 45.8632 56.3979 40.5435 59.523C35.2238 62.6481 32.564 64.2106 30.3814 63.9772C28.4776 63.7736 26.7481 62.7576 25.623 61.1818C24.333 59.3753 24.333 56.2502 24.333 50C24.333 43.7498 24.333 40.6247 25.623 38.8182C26.7482 37.2424 28.4776 36.2264 30.3814 36.0228C32.564 35.7894 35.2238 37.3519 40.5435 40.477Z" stroke="#004070" stroke-width="3.5"/>
<path d="M66.2102 40.477C71.5299 43.6021 74.1898 45.1647 75.0824 47.2047C75.861 48.984 75.861 51.016 75.0824 52.7953C74.1898 54.8353 71.5299 56.3979 66.2102 59.523C60.8905 62.6481 58.2306 64.2106 56.048 63.9772C54.1443 63.7736 52.4148 62.7576 51.2896 61.1818C49.9997 59.3753 49.9997 56.2502 49.9997 50C49.9997 43.7498 49.9997 40.6247 51.2896 38.8182C52.4148 37.2424 54.1443 36.2264 56.048 36.0228C58.2306 35.7894 60.8905 37.3519 66.2102 40.477Z" stroke="#004070" stroke-width="3.5"/>
</svg>
