<svg width="100" height="100" viewBox="0 0 100 100" fill="none" xmlns="http://www.w3.org/2000/svg">
<rect width="100" height="100" rx="50" fill="white"/>
<rect width="100" height="100" rx="50" fill="#4AD0FF" fill-opacity="0.15"/>
<path d="M35.9259 26.2831C36.6806 25.6793 36.803 24.5781 36.1992 23.8234C35.5954 23.0686 34.4942 22.9463 33.7395 23.55L27.9061 28.2167C27.1514 28.8205 27.0291 29.9217 27.6328 30.6765C28.2366 31.4312 29.3379 31.5535 30.0926 30.9498L35.9259 26.2831Z" fill="#004070"/>
<path d="M66.2592 23.55C65.5045 22.9463 64.4033 23.0686 63.7995 23.8234C63.1957 24.5781 63.3181 25.6793 64.0728 26.2831L69.9061 30.9498C70.6608 31.5535 71.7621 31.4312 72.3659 30.6765C72.9696 29.9217 72.8473 28.8205 72.0926 28.2167L66.2592 23.55Z" fill="#004070"/>
<path d="M51.7494 40.6666C51.7494 39.7001 50.9658 38.9166 49.9994 38.9166C49.0329 38.9166 48.2494 39.7001 48.2494 40.6666L48.2494 47.0259C48.2493 48.2715 48.2493 49.331 48.3359 50.2102C48.4283 51.1468 48.6285 52.015 49.109 52.8473C49.5896 53.6796 50.2413 54.287 51.0063 54.8353C51.7244 55.35 52.6419 55.8797 53.7207 56.5024L55.1867 57.3488C56.0237 57.832 57.094 57.5452 57.5772 56.7082C58.0605 55.8712 57.7737 54.8009 56.9367 54.3177L55.5411 53.512C54.3728 52.8375 53.6065 52.3928 53.0452 51.9905C52.5151 51.6106 52.2848 51.3479 52.1401 51.0972C51.9954 50.8466 51.883 50.5159 51.8191 49.8668C51.7513 49.1795 51.7494 48.2935 51.7494 46.9446L51.7494 40.6666Z" fill="#004070"/>
<path fill-rule="evenodd" clip-rule="evenodd" d="M49.9994 24.9166C36.1462 24.9166 24.916 36.1468 24.916 49.9999C24.916 63.853 36.1462 75.0832 49.9994 75.0832C63.8525 75.0832 75.0827 63.853 75.0827 49.9999C75.0827 36.1468 63.8525 24.9166 49.9994 24.9166ZM28.416 49.9999C28.416 38.0798 38.0792 28.4166 49.9994 28.4166C61.9195 28.4166 71.5827 38.0798 71.5827 49.9999C71.5827 61.9201 61.9195 71.5832 49.9994 71.5832C38.0792 71.5832 28.416 61.9201 28.416 49.9999Z" fill="#004070"/>
</svg>
