<svg width="100" height="100" viewBox="0 0 100 100" fill="none" xmlns="http://www.w3.org/2000/svg">
<rect width="100" height="100" rx="50" fill="white"/>
<rect width="100" height="100" rx="50" fill="#4AD0FF" fill-opacity="0.15"/>
<path d="M39.6846 45.5C39.6846 44.2574 40.6919 43.25 41.9346 43.25H46.4346C47.6772 43.25 48.6846 44.2574 48.6846 45.5V50C48.6846 51.2426 47.6772 52.25 46.4346 52.25H41.9346C40.6919 52.25 39.6846 51.2426 39.6846 50V45.5Z" fill="#004070"/>
<path d="M45.5414 74.6596L45.328 76.3336L45.5414 74.6596ZM35.5848 63.6531L33.9203 63.9305L35.5848 63.6531ZM36.1906 66.7383L37.8067 66.2526L36.1906 66.7383ZM61.7838 63.6531L60.1192 63.3756L60.1192 63.3756L61.7838 63.6531ZM61.178 66.7383L59.5619 66.2526L61.178 66.7383ZM51.8271 74.6596L52.0406 76.3336L51.8271 74.6596ZM56.8197 34.781L57.3321 33.1732L56.8197 34.781ZM63.7251 52.0051L62.0606 51.7277L62.0606 51.7277L63.7251 52.0051ZM64.5387 43.893L66.2089 43.652L64.5387 43.893ZM40.5488 34.781L40.0365 33.1732L40.5488 34.781ZM33.6435 52.0051L35.308 51.7277L33.6435 52.0051ZM32.8298 43.893L31.1596 43.652L32.8298 43.893ZM42.4968 50C42.4968 50.932 43.2523 51.6875 44.1843 51.6875C45.1163 51.6875 45.8718 50.932 45.8718 50L42.4968 50ZM44.1843 36.5L45.8718 36.5V36.5H44.1843ZM47.1749 30.5047C47.5917 31.3383 48.6054 31.6761 49.439 31.2593C50.2725 30.8426 50.6104 29.8289 50.1936 28.9953L47.1749 30.5047ZM48.5655 29.5125L50.0749 28.7578L50.0749 28.7578L48.5655 29.5125ZM48.5655 25.4875L47.0562 24.7329L47.0562 24.7329L48.5655 25.4875ZM50.1936 26.0047C50.6104 25.1711 50.2726 24.1575 49.439 23.7407C48.6054 23.3239 47.5917 23.6617 47.1749 24.4953L50.1936 26.0047ZM38.1749 28.9953C37.7581 29.8289 38.096 30.8426 38.9296 31.2593C39.7632 31.6761 40.7768 31.3383 41.1936 30.5047L38.1749 28.9953ZM39.8031 29.5125L38.2937 28.7578L38.2937 28.7578L39.8031 29.5125ZM39.8031 25.4875L38.2937 26.2422L38.2937 26.2422L39.8031 25.4875ZM41.1936 24.4953C40.7768 23.6617 39.7632 23.3239 38.9296 23.7407C38.096 24.1574 37.7581 25.1711 38.1749 26.0047L41.1936 24.4953ZM56.1749 28.9953C55.7581 29.8289 56.096 30.8425 56.9296 31.2593C57.7632 31.6761 58.7768 31.3383 59.1936 30.5047L56.1749 28.9953ZM57.8031 29.5125L59.3124 30.2671L59.3124 30.2671L57.8031 29.5125ZM57.8031 25.4875L56.2937 26.2422L56.2937 26.2422L57.8031 25.4875ZM59.1936 24.4953C58.7768 23.6617 57.7632 23.3239 56.9296 23.7407C56.096 24.1574 55.7581 25.1711 56.1749 26.0047L59.1936 24.4953ZM44.1843 34.2922L44.1244 32.6058L44.1843 34.2922ZM37.2493 63.3756L35.308 51.7277L31.9789 52.2825L33.9203 63.9305L37.2493 63.3756ZM48.6843 73.0625C47.0122 73.0625 46.331 73.0592 45.7549 72.9857L45.328 76.3336C46.1691 76.4408 47.1108 76.4375 48.6843 76.4375V73.0625ZM33.9203 63.9305C34.1789 65.4826 34.3304 66.412 34.5745 67.2241L37.8067 66.2526C37.6395 65.6963 37.5242 65.025 37.2493 63.3756L33.9203 63.9305ZM45.7549 72.9857C42.0083 72.5079 38.8939 69.8697 37.8067 66.2526L34.5745 67.2241C36.0454 72.1178 40.259 75.6872 45.328 76.3336L45.7549 72.9857ZM60.1192 63.3756C59.8443 65.025 59.7291 65.6963 59.5619 66.2526L62.794 67.2241C63.0381 66.412 63.1896 65.4826 63.4483 63.9305L60.1192 63.3756ZM48.6843 76.4375C50.2578 76.4375 51.1994 76.4408 52.0406 76.3336L51.6137 72.9857C51.0376 73.0592 50.3564 73.0625 48.6843 73.0625V76.4375ZM59.5619 66.2526C58.4747 69.8697 55.3603 72.5079 51.6137 72.9857L52.0406 76.3336C57.1095 75.6872 61.3231 72.1178 62.794 67.2241L59.5619 66.2526ZM48.6843 35.9375C53.1336 35.9375 54.9554 35.9581 56.3074 36.3889L57.3321 33.1732C55.351 32.5419 52.8602 32.5625 48.6843 32.5625V35.9375ZM56.3074 36.3889C59.7973 37.501 62.3453 40.5088 62.8685 44.1341L66.2089 43.652C65.5011 38.7472 62.0537 34.6778 57.3321 33.1732L56.3074 36.3889ZM35.308 51.7277C34.5765 47.3389 34.2973 45.5385 34.5 44.1341L31.1596 43.652C30.8626 45.7099 31.2924 48.1634 31.9789 52.2825L35.308 51.7277ZM40.0365 33.1732C35.3149 34.6778 31.8675 38.7472 31.1596 43.652L34.5 44.1341C35.0232 40.5088 37.5713 37.501 41.0612 36.3889L40.0365 33.1732ZM69.4968 54.5C69.4968 57.2959 67.2302 59.5625 64.4343 59.5625V62.9375C69.0942 62.9375 72.8718 59.1599 72.8718 54.5H69.4968ZM64.4343 49.4375C67.2302 49.4375 69.4968 51.7041 69.4968 54.5H72.8718C72.8718 49.8401 69.0942 46.0625 64.4343 46.0625V49.4375ZM45.8718 50L45.8718 36.5L42.4968 36.5L42.4968 50L45.8718 50ZM50.1936 28.9953L50.0749 28.7578L47.0562 30.2671L47.1749 30.5047L50.1936 28.9953ZM50.0749 26.2422L50.1936 26.0047L47.1749 24.4953L47.0562 24.7329L50.0749 26.2422ZM50.0749 28.7578C49.679 27.966 49.679 27.034 50.0749 26.2422L47.0562 24.7329C46.1852 26.4748 46.1852 28.5252 47.0562 30.2671L50.0749 28.7578ZM41.1936 30.5047L41.3124 30.2671L38.2937 28.7578L38.1749 28.9953L41.1936 30.5047ZM41.3124 24.7329L41.1936 24.4953L38.1749 26.0047L38.2937 26.2422L41.3124 24.7329ZM41.3124 30.2671C42.1834 28.5252 42.1834 26.4748 41.3124 24.7329L38.2937 26.2422C38.6896 27.034 38.6896 27.966 38.2937 28.7578L41.3124 30.2671ZM59.1936 30.5047L59.3124 30.2671L56.2937 28.7578L56.1749 28.9953L59.1936 30.5047ZM59.3124 24.7329L59.1936 24.4953L56.1749 26.0047L56.2937 26.2422L59.3124 24.7329ZM59.3124 30.2671C60.1834 28.5252 60.1834 26.4748 59.3124 24.7329L56.2937 26.2422C56.6896 27.034 56.6896 27.966 56.2937 28.7578L59.3124 30.2671ZM65.3896 52.2825C65.6767 50.5599 65.9117 49.1511 66.0703 47.9756L62.7256 47.5244C62.5756 48.6363 62.3508 49.9862 62.0606 51.7277L65.3896 52.2825ZM66.0703 47.9756C66.2998 46.2744 66.3917 44.9185 66.2089 43.652L62.8685 44.1341C62.982 44.9202 62.9454 45.8952 62.7256 47.5244L66.0703 47.9756ZM64.4343 46.0625H64.3979V49.4375H64.4343V46.0625ZM64.4343 59.5625C63.8565 59.5625 63.3047 59.4664 62.7919 59.2906L61.6977 62.4833C62.558 62.7782 63.4793 62.9375 64.4343 62.9375V59.5625ZM62.0606 51.7277L60.5803 60.6095L63.9093 61.1644L65.3896 52.2825L62.0606 51.7277ZM60.5803 60.6095L60.1192 63.3756L63.4483 63.9305L63.9093 61.1644L60.5803 60.6095ZM48.6843 32.5625C46.8409 32.5625 45.3507 32.5623 44.1244 32.6058L44.2442 35.9787C45.397 35.9377 46.8185 35.9375 48.6843 35.9375V32.5625ZM44.1244 32.6058C42.5047 32.6633 41.2102 32.7992 40.0365 33.1732L41.0612 36.3889C41.7872 36.1576 42.7106 36.0331 44.2442 35.9787L44.1244 32.6058ZM45.8718 36.5V34.2922H42.4968V36.5H45.8718Z" fill="#004070"/>
</svg>
